<?xml version="1.0" standalone="no"?>
<!DOCTYPE svg PUBLIC "-//W3C//DTD SVG 20010904//EN"
 "http://www.w3.org/TR/2001/REC-SVG-20010904/DTD/svg10.dtd">
<svg version="1.0" xmlns="http://www.w3.org/2000/svg"
 width="200.000000pt" height="200.000000pt" viewBox="0 0 200.000000 200.000000"
 preserveAspectRatio="xMidYMid meet">
<metadata>
Created by potrace 1.14, written by Peter Selinger 2001-2017
</metadata>
<g transform="translate(0.000000,200.000000) scale(0.100000,-0.100000)"
fill="#000000" stroke="none">
<path d="M457 1542 c-251 -251 -457 -465 -457 -474 0 -26 17 -31 109 -34 48
-1 90 -2 94 -3 4 0 7 -73 6 -161 0 -87 2 -164 6 -170 9 -14 41 -13 52 3 5 7 9
94 9 200 -1 154 -4 189 -16 197 -8 5 -39 8 -70 6 -30 -2 -58 -2 -62 1 -5 2
175 187 398 409 223 223 407 404 409 402 17 -16 766 -763 787 -785 l27 -28
-73 0 c-41 0 -78 -4 -82 -8 -5 -4 -8 -52 -8 -105 0 -59 -4 -100 -10 -104 -7
-5 -7 -8 -1 -8 13 0 17 -58 5 -80 -5 -10 -6 -20 -2 -24 11 -12 11 -127 -1
-119 -6 4 -7 1 -2 -8 14 -22 16 -71 4 -85 -6 -8 -7 -14 -2 -14 5 0 9 -41 8
-93 -1 -73 -4 -91 -15 -89 -10 2 -11 0 -2 -11 18 -22 -17 -43 -78 -46 -59 -3
-72 -10 -77 -40 -4 -29 69 -49 109 -29 10 5 20 4 24 -3 5 -8 10 -6 16 5 5 9
13 14 17 11 5 -2 14 2 21 10 7 8 17 12 23 8 5 -3 7 -1 3 5 -3 6 -1 16 6 24 13
14 19 30 22 58 0 8 6 18 11 22 6 5 6 8 -2 8 -12 0 -10 50 2 70 3 6 3 10 -2 10
-11 0 -9 122 2 140 5 8 4 11 -2 7 -10 -6 -9 65 2 82 3 6 3 11 -2 11 -10 0 -9
212 1 228 4 7 3 12 -1 12 -7 0 -9 29 -4 75 1 6 35 10 84 9 94 0 117 7 117 39
0 29 -897 927 -926 927 -12 0 -196 -177 -477 -458z"/>
<path d="M1210 1198 c0 -4 4 -8 9 -8 6 0 12 4 15 8 3 5 -1 9 -9 9 -8 0 -15 -4
-15 -9z"/>
<path d="M1140 1160 c-9 -6 -10 -10 -3 -10 6 0 15 5 18 10 8 12 4 12 -15 0z"/>
<path d="M996 1118 c3 -5 10 -6 15 -3 13 9 11 12 -6 12 -8 0 -12 -4 -9 -9z"/>
<path d="M1406 1078 c3 -5 10 -6 15 -3 13 9 11 12 -6 12 -8 0 -12 -4 -9 -9z"/>
<path d="M947 1039 c7 -7 15 -10 18 -7 3 3 -2 9 -12 12 -14 6 -15 5 -6 -5z"/>
<path d="M1086 1038 c3 -4 9 -8 15 -8 5 0 9 4 9 8 0 5 -7 9 -15 9 -8 0 -12 -4
-9 -9z"/>
<path d="M1030 976 c0 -2 8 -10 18 -17 15 -13 16 -12 3 4 -13 16 -21 21 -21
13z"/>
<path d="M846 882 c-3 -5 1 -9 9 -9 8 0 12 4 9 9 -3 4 -7 8 -9 8 -2 0 -6 -4
-9 -8z"/>
<path d="M1326 882 c-3 -5 1 -9 9 -9 8 0 15 4 15 9 0 4 -4 8 -9 8 -6 0 -12 -4
-15 -8z"/>
<path d="M709 803 c-13 -16 -12 -17 4 -4 9 7 17 15 17 17 0 8 -8 3 -21 -13z"/>
<path d="M900 802 c0 -8 -9 -11 -25 -8 -13 3 -27 0 -31 -5 -3 -5 -8 -7 -12 -5
-8 5 -6 -98 2 -119 3 -9 22 -13 61 -13 62 1 81 18 72 64 -2 13 0 24 4 24 5 0
3 11 -3 25 -10 22 -20 27 -44 24 -4 0 -11 5 -15 13 -7 10 -9 10 -9 0z"/>
<path d="M1063 792 c-13 -2 -23 -8 -23 -13 0 -6 -5 -7 -12 -3 -7 5 -8 3 -3 -6
12 -19 12 -54 0 -62 -6 -5 -6 -8 2 -8 7 0 10 -6 7 -14 -8 -22 28 -36 82 -32
67 5 66 5 59 16 -3 5 -1 18 5 29 6 12 6 22 1 26 -6 3 -8 14 -6 24 2 10 0 23
-4 29 -8 13 -69 20 -108 14z"/>
<path d="M1856 758 c3 -5 10 -6 15 -3 13 9 11 12 -6 12 -8 0 -12 -4 -9 -9z"/>
<path d="M1376 722 c-3 -5 1 -9 9 -9 8 0 12 4 9 9 -3 4 -7 8 -9 8 -2 0 -6 -4
-9 -8z"/>
<path d="M1247 679 c7 -7 15 -10 18 -7 3 3 -2 9 -12 12 -14 6 -15 5 -6 -5z"/>
<path d="M211 628 c-8 -21 -6 -70 4 -95 5 -14 54 -18 56 -5 4 28 5 99 1 110
-7 21 -52 14 -61 -10z"/>
<path d="M1193 595 c0 -8 4 -12 9 -9 5 3 6 10 3 15 -9 13 -12 11 -12 -6z"/>
<path d="M930 593 c0 -5 -20 -8 -46 -7 -50 3 -55 -3 -56 -58 -1 -65 2 -78 17
-78 8 0 15 -6 15 -12 0 -9 4 -8 10 2 9 13 11 13 20 0 6 -9 10 -10 10 -3 0 6 8
10 18 8 33 -6 45 11 49 68 2 44 -1 58 -17 72 -11 10 -20 14 -20 8z"/>
<path d="M1265 592 c3 -3 -2 -10 -11 -16 -9 -7 -15 -26 -14 -51 1 -82 -2 -78
63 -77 15 0 25 -3 22 -8 -3 -5 8 -2 25 6 28 14 30 20 30 67 0 68 -8 79 -53 74
-21 -2 -37 -1 -37 3 0 4 -7 7 -15 7 -8 0 -13 -3 -10 -5z"/>
<path d="M635 577 c-16 -9 -22 -112 -7 -121 5 -3 25 -6 45 -8 21 -1 37 -5 37
-10 0 -4 12 0 28 9 24 14 27 21 26 62 -3 74 -9 81 -66 79 -27 -2 -55 -6 -63
-11z"/>
<path d="M1047 575 c-8 -8 -18 -11 -22 -7 -5 4 -5 1 -1 -6 5 -7 9 -34 10 -58
1 -25 7 -49 14 -53 6 -4 33 -6 59 -6 27 1 52 -3 56 -9 6 -7 7 -4 3 7 -3 9 -2
17 2 17 6 0 8 70 3 116 -2 18 -107 16 -124 -1z"/>
<path d="M1407 559 c7 -7 15 -10 18 -7 3 3 -2 9 -12 12 -14 6 -15 5 -6 -5z"/>
<path d="M1486 558 c3 -5 10 -6 15 -3 13 9 11 12 -6 12 -8 0 -12 -4 -9 -9z"/>
<path d="M1476 507 c3 -10 9 -15 12 -12 3 3 0 11 -7 18 -10 9 -11 8 -5 -6z"/>
<path d="M217 473 c-13 -13 -7 -125 9 -158 29 -63 64 -71 295 -73 112 -1 216
-3 232 -5 15 -3 27 -1 27 4 0 4 7 15 16 23 8 9 11 16 5 16 -6 0 -11 7 -11 15
0 13 -32 15 -231 15 -133 0 -238 4 -249 10 -22 12 -43 70 -34 93 12 31 -4 67
-30 67 -12 0 -26 -3 -29 -7z"/>
<path d="M1395 440 c3 -5 8 -10 11 -10 2 0 4 5 4 10 0 6 -5 10 -11 10 -5 0 -7
-4 -4 -10z"/>
<path d="M838 375 c-20 -15 -16 -114 5 -129 19 -15 94 -11 114 6 9 7 13 23 11
40 -3 15 0 28 6 28 6 0 6 4 -1 11 -6 6 -9 17 -6 25 5 14 -14 20 -79 26 -20 2
-42 -1 -50 -7z"/>
<path d="M1038 382 c6 -2 8 -10 5 -18 -3 -7 -10 -11 -16 -7 -6 4 -7 1 -2 -8 5
-7 9 -29 8 -49 -1 -50 11 -60 73 -60 54 0 72 13 69 50 -1 8 4 21 9 29 8 11 8
13 0 8 -7 -4 -11 3 -11 19 0 13 -2 26 -4 28 -2 2 -35 6 -73 8 -38 2 -64 2 -58
0z"/>
<path d="M1261 378 c-23 -8 -24 -13 -20 -73 1 -22 2 -47 3 -55 0 -12 13 -14
61 -12 33 1 65 3 70 4 10 1 5 121 -6 132 -9 10 -86 13 -108 4z"/>
<path d="M910 141 c0 -6 4 -13 10 -16 6 -3 7 1 4 9 -7 18 -14 21 -14 7z"/>
<path d="M956 107 c3 -10 9 -15 12 -12 3 3 0 11 -7 18 -10 9 -11 8 -5 -6z"/>
<path d="M1176 78 c3 -5 10 -6 15 -3 13 9 11 12 -6 12 -8 0 -12 -4 -9 -9z"/>
<path d="M1365 80 c-3 -6 1 -7 9 -4 18 7 21 14 7 14 -6 0 -13 -4 -16 -10z"/>
</g>
</svg>
